<mxfile host="65bd71144e">
    <diagram id="6m0vkxQ74y48g8Y6Z4cp" name="Page-1">
        <mxGraphModel dx="662" dy="1128" grid="1" gridSize="10" guides="1" tooltips="1" connect="1" arrows="1" fold="1" page="1" pageScale="1" pageWidth="850" pageHeight="1100" math="0" shadow="0">
            <root>
                <mxCell id="0"/>
                <mxCell id="1" parent="0"/>
                <mxCell id="7" value="" style="edgeStyle=none;html=1;fontFamily=Arial;" parent="1" source="2" target="6" edge="1">
                    <mxGeometry relative="1" as="geometry"/>
                </mxCell>
                <mxCell id="2" value="Preenchimento da seção 1&lt;br&gt;(contexto, problemas, hipóteses, objetivos, contribuições, metodologia)" style="rounded=1;whiteSpace=wrap;html=1;fontFamily=Arial;" parent="1" vertex="1">
                    <mxGeometry x="311" y="230" width="220" height="90" as="geometry"/>
                </mxCell>
                <mxCell id="4" style="edgeStyle=none;html=1;fontFamily=Arial;" parent="1" source="3" target="2" edge="1">
                    <mxGeometry relative="1" as="geometry"/>
                </mxCell>
                <mxCell id="3" value="Início" style="ellipse;whiteSpace=wrap;html=1;aspect=fixed;fontFamily=Arial;" parent="1" vertex="1">
                    <mxGeometry x="98" y="240" width="70" height="70" as="geometry"/>
                </mxCell>
                <mxCell id="9" value="" style="edgeStyle=none;html=1;fontFamily=Arial;" parent="1" source="6" target="8" edge="1">
                    <mxGeometry relative="1" as="geometry"/>
                </mxCell>
                <mxCell id="6" value="Mapeamento Exploratório da Literatura" style="whiteSpace=wrap;html=1;rounded=1;fontFamily=Arial;" parent="1" vertex="1">
                    <mxGeometry x="667" y="245" width="120" height="60" as="geometry"/>
                </mxCell>
                <mxCell id="11" value="" style="edgeStyle=none;html=1;fontFamily=Arial;" parent="1" source="8" target="10" edge="1">
                    <mxGeometry relative="1" as="geometry"/>
                </mxCell>
                <mxCell id="8" value="Estudo bibliométrico e estatístico dos resultados do Mapeamento Exploratório da Literatura" style="whiteSpace=wrap;html=1;rounded=1;fontFamily=Arial;" parent="1" vertex="1">
                    <mxGeometry x="627" y="365" width="200" height="100" as="geometry"/>
                </mxCell>
                <mxCell id="13" value="" style="edgeStyle=none;html=1;fontFamily=Arial;" parent="1" source="10" target="12" edge="1">
                    <mxGeometry relative="1" as="geometry"/>
                </mxCell>
                <mxCell id="10" value="Revisão da seção 1&lt;br&gt;(contexto, problemas, hipóteses, objetivos, contribuições, metodologia)" style="whiteSpace=wrap;html=1;rounded=1;fontFamily=Arial;" parent="1" vertex="1">
                    <mxGeometry x="331" y="370" width="180" height="90" as="geometry"/>
                </mxCell>
                <mxCell id="15" value="" style="edgeStyle=none;html=1;fontFamily=Arial;" parent="1" source="12" target="14" edge="1">
                    <mxGeometry relative="1" as="geometry"/>
                </mxCell>
                <mxCell id="12" value="Planejamento da Revisão Sistemática da Literatura" style="whiteSpace=wrap;html=1;rounded=1;fontFamily=Arial;" parent="1" vertex="1">
                    <mxGeometry x="53" y="380" width="160" height="70" as="geometry"/>
                </mxCell>
                <mxCell id="17" value="" style="edgeStyle=none;html=1;fontFamily=Arial;" parent="1" source="14" target="16" edge="1">
                    <mxGeometry relative="1" as="geometry"/>
                </mxCell>
                <mxCell id="14" value="Execução da RSL" style="whiteSpace=wrap;html=1;rounded=1;fontFamily=Arial;" parent="1" vertex="1">
                    <mxGeometry x="73" y="535" width="120" height="60" as="geometry"/>
                </mxCell>
                <mxCell id="18" style="edgeStyle=none;html=1;entryX=0.5;entryY=1;entryDx=0;entryDy=0;fontFamily=Arial;" parent="1" source="16" target="10" edge="1">
                    <mxGeometry relative="1" as="geometry"/>
                </mxCell>
                <mxCell id="20" value="" style="edgeStyle=none;html=1;exitX=1;exitY=0.25;exitDx=0;exitDy=0;entryX=0;entryY=0.25;entryDx=0;entryDy=0;fontFamily=Arial;" parent="1" source="16" target="19" edge="1">
                    <mxGeometry relative="1" as="geometry"/>
                </mxCell>
                <mxCell id="29" style="edgeStyle=none;html=1;entryX=0.5;entryY=0;entryDx=0;entryDy=0;" parent="1" source="16" target="27" edge="1">
                    <mxGeometry relative="1" as="geometry"/>
                </mxCell>
                <mxCell id="16" value="Consolidação dos resultados descobertos" style="whiteSpace=wrap;html=1;rounded=1;fontFamily=Arial;" parent="1" vertex="1">
                    <mxGeometry x="361" y="535" width="120" height="60" as="geometry"/>
                </mxCell>
                <mxCell id="21" style="edgeStyle=none;html=1;entryX=1;entryY=1;entryDx=0;entryDy=0;fontFamily=Arial;" parent="1" source="19" target="10" edge="1">
                    <mxGeometry relative="1" as="geometry"/>
                </mxCell>
                <mxCell id="22" style="edgeStyle=none;html=1;exitX=0;exitY=0.75;exitDx=0;exitDy=0;entryX=1;entryY=0.75;entryDx=0;entryDy=0;fontFamily=Arial;" parent="1" source="19" target="16" edge="1">
                    <mxGeometry relative="1" as="geometry"/>
                </mxCell>
                <mxCell id="19" value="Estudos de casos múltiplos com AWS, Azure e GCP" style="whiteSpace=wrap;html=1;rounded=1;fontFamily=Arial;" parent="1" vertex="1">
                    <mxGeometry x="667" y="535" width="120" height="60" as="geometry"/>
                </mxCell>
                <mxCell id="27" value="Conclusão" style="ellipse;whiteSpace=wrap;html=1;aspect=fixed;fontFamily=Arial;" parent="1" vertex="1">
                    <mxGeometry x="386" y="640" width="70" height="70" as="geometry"/>
                </mxCell>
            </root>
        </mxGraphModel>
    </diagram>
</mxfile>
